<svg xmlns="http://www.w3.org/2000/svg" width="1200" height="428" viewBox="0 0 1200 428" role="img" aria-labelledby="t d">
  <title id="t">Stack de tecnologias</title>
  <desc id="d">Dados: SQL, PostgreSQL, Python e Excel (usados em projetos); Pandas, NumPy e Power BI (aprofundando). Backend: Node.js, Express, TypeScript e APIs REST. Front-end: HTML, CSS, JavaScript e Tailwind CSS (usados em projetos); React (aprofundando). Infra: Docker, Git e GitHub (usados em projetos); AWS (aprofundando).</desc>
  <defs>
    <linearGradient id="bg" x1="0" y1="0" x2="1" y2="1"><stop offset="0" stop-color="#0b0b0f"/><stop offset="1" stop-color="#1d0d0d"/></linearGradient>
  </defs>
  <style>
    text { font-family: 'Segoe UI', system-ui, -apple-system, Roboto, 'Helvetica Neue', Arial, sans-serif; }
    .c { animation: in .6s ease-out both; }
    @keyframes in { from { opacity: 0; transform: translateY(6px); } to { opacity: 1; transform: translateY(0); } }
    @media (prefers-reduced-motion: reduce) { * { animation: none !important; } }
  </style>
  <rect width="1200" height="428" rx="18" fill="url(#bg)"/>
  <rect x=".5" y=".5" width="1199" height="427" rx="18" fill="none" stroke="#ffffff" stroke-opacity=".08"/>

  <text x="40" y="52" font-size="14" font-weight="700" letter-spacing="3" fill="#fb923c">STACK POR ÁREA</text>
  <g transform="translate(790 32)">
    <rect x="0" y="0" width="34" height="20" rx="10" fill="#1c1917" stroke="#f97316" stroke-opacity=".8"/>
    <text x="44" y="16" font-size="14" fill="#d1d5db">usado em projetos</text>
    <rect x="190" y="0" width="34" height="20" rx="10" fill="none" stroke="#a1a1aa" stroke-opacity=".9" stroke-dasharray="4 4"/>
    <text x="234" y="16" font-size="14" fill="#d1d5db">aprofundando</text>
  </g>
  <rect x="28" y="92" width="564" height="150" rx="14" fill="#ffffff" fill-opacity=".025" stroke="#fb923c" stroke-opacity=".45"/><text x="48" y="126" font-size="20" font-weight="700" fill="#ffffff">Dados</text><text x="576" y="125" font-size="14" text-anchor="end" fill="#9ca3af">análise e consulta</text><g class="c" style="animation-delay:0.05s"><rect x="48.0" y="151.0" width="80.0" height="38" rx="19" fill="#1c1917" stroke="#14b8a6" stroke-opacity=".6"/><circle cx="68.0" cy="170.0" r="5.5" fill="#14b8a6" fill-opacity="1"/><text x="82.0" y="176.0" font-size="17" font-weight="600" fill="#f3f4f6">SQL</text></g><g class="c" style="animation-delay:0.10s"><rect x="140.0" y="151.0" width="150.0" height="38" rx="19" fill="#1c1917" stroke="#4169e1" stroke-opacity=".6"/><circle cx="160.0" cy="170.0" r="5.5" fill="#4169e1" fill-opacity="1"/><text x="174.0" y="176.0" font-size="17" font-weight="600" fill="#f3f4f6">PostgreSQL</text></g><g class="c" style="animation-delay:0.14s"><rect x="302.0" y="151.0" width="110.0" height="38" rx="19" fill="#1c1917" stroke="#facc15" stroke-opacity=".6"/><circle cx="322.0" cy="170.0" r="5.5" fill="#facc15" fill-opacity="1"/><text x="336.0" y="176.0" font-size="17" font-weight="600" fill="#f3f4f6">Python</text></g><g class="c" style="animation-delay:0.18s"><rect x="424.0" y="151.0" width="100.0" height="38" rx="19" fill="#1c1917" stroke="#22c55e" stroke-opacity=".6"/><circle cx="444.0" cy="170.0" r="5.5" fill="#22c55e" fill-opacity="1"/><text x="458.0" y="176.0" font-size="17" font-weight="600" fill="#f3f4f6">Excel</text></g><g class="c" style="animation-delay:0.23s"><rect x="48.0" y="199.0" width="110.0" height="38" rx="19" fill="none" stroke="#a78bfa" stroke-opacity=".65" stroke-dasharray="4 4"/><circle cx="68.0" cy="218.0" r="5.5" fill="#a78bfa" fill-opacity="0.7"/><text x="82.0" y="224.0" font-size="17" font-weight="600" fill="#a1a1aa">Pandas</text></g><g class="c" style="animation-delay:0.27s"><rect x="170.0" y="199.0" width="100.0" height="38" rx="19" fill="none" stroke="#4dabcf" stroke-opacity=".65" stroke-dasharray="4 4"/><circle cx="190.0" cy="218.0" r="5.5" fill="#4dabcf" fill-opacity="0.7"/><text x="204.0" y="224.0" font-size="17" font-weight="600" fill="#a1a1aa">NumPy</text></g><g class="c" style="animation-delay:0.32s"><rect x="282.0" y="199.0" width="130.0" height="38" rx="19" fill="none" stroke="#f2c811" stroke-opacity=".65" stroke-dasharray="4 4"/><circle cx="302.0" cy="218.0" r="5.5" fill="#f2c811" fill-opacity="0.7"/><text x="316.0" y="224.0" font-size="17" font-weight="600" fill="#a1a1aa">Power BI</text></g><rect x="608" y="92" width="564" height="150" rx="14" fill="#ffffff" fill-opacity=".025" stroke="#ffffff" stroke-opacity=".08"/><text x="628" y="126" font-size="20" font-weight="700" fill="#ffffff">Backend</text><text x="1156" y="125" font-size="14" text-anchor="end" fill="#9ca3af">APIs e servidores</text><g class="c" style="animation-delay:0.36s"><rect x="628.0" y="151.0" width="120.0" height="38" rx="19" fill="#1c1917" stroke="#5fa04e" stroke-opacity=".6"/><circle cx="648.0" cy="170.0" r="5.5" fill="#5fa04e" fill-opacity="1"/><text x="662.0" y="176.0" font-size="17" font-weight="600" fill="#f3f4f6">Node.js</text></g><g class="c" style="animation-delay:0.41s"><rect x="760.0" y="151.0" width="120.0" height="38" rx="19" fill="#1c1917" stroke="#9ca3af" stroke-opacity=".6"/><circle cx="780.0" cy="170.0" r="5.5" fill="#9ca3af" fill-opacity="1"/><text x="794.0" y="176.0" font-size="17" font-weight="600" fill="#f3f4f6">Express</text></g><g class="c" style="animation-delay:0.45s"><rect x="892.0" y="151.0" width="150.0" height="38" rx="19" fill="#1c1917" stroke="#3178c6" stroke-opacity=".6"/><circle cx="912.0" cy="170.0" r="5.5" fill="#3178c6" fill-opacity="1"/><text x="926.0" y="176.0" font-size="17" font-weight="600" fill="#f3f4f6">TypeScript</text></g><g class="c" style="animation-delay:0.50s"><rect x="628.0" y="199.0" width="140.0" height="38" rx="19" fill="#1c1917" stroke="#f97316" stroke-opacity=".6"/><circle cx="648.0" cy="218.0" r="5.5" fill="#f97316" fill-opacity="1"/><text x="662.0" y="224.0" font-size="17" font-weight="600" fill="#f3f4f6">APIs REST</text></g><rect x="28" y="256" width="564" height="150" rx="14" fill="#ffffff" fill-opacity=".025" stroke="#ffffff" stroke-opacity=".08"/><text x="48" y="290" font-size="20" font-weight="700" fill="#ffffff">Front-end</text><text x="576" y="289" font-size="14" text-anchor="end" fill="#9ca3af">interfaces e painéis</text><g class="c" style="animation-delay:0.54s"><rect x="48.0" y="315.0" width="90.0" height="38" rx="19" fill="#1c1917" stroke="#e34f26" stroke-opacity=".6"/><circle cx="68.0" cy="334.0" r="5.5" fill="#e34f26" fill-opacity="1"/><text x="82.0" y="340.0" font-size="17" font-weight="600" fill="#f3f4f6">HTML</text></g><g class="c" style="animation-delay:0.59s"><rect x="150.0" y="315.0" width="80.0" height="38" rx="19" fill="#1c1917" stroke="#3b82f6" stroke-opacity=".6"/><circle cx="170.0" cy="334.0" r="5.5" fill="#3b82f6" fill-opacity="1"/><text x="184.0" y="340.0" font-size="17" font-weight="600" fill="#f3f4f6">CSS</text></g><g class="c" style="animation-delay:0.64s"><rect x="242.0" y="315.0" width="150.0" height="38" rx="19" fill="#1c1917" stroke="#f7df1e" stroke-opacity=".6"/><circle cx="262.0" cy="334.0" r="5.5" fill="#f7df1e" fill-opacity="1"/><text x="276.0" y="340.0" font-size="17" font-weight="600" fill="#f3f4f6">JavaScript</text></g><g class="c" style="animation-delay:0.68s"><rect x="404.0" y="315.0" width="170.0" height="38" rx="19" fill="#1c1917" stroke="#38bdf8" stroke-opacity=".6"/><circle cx="424.0" cy="334.0" r="5.5" fill="#38bdf8" fill-opacity="1"/><text x="438.0" y="340.0" font-size="17" font-weight="600" fill="#f3f4f6">Tailwind CSS</text></g><g class="c" style="animation-delay:0.73s"><rect x="48.0" y="363.0" width="100.0" height="38" rx="19" fill="none" stroke="#61dafb" stroke-opacity=".65" stroke-dasharray="4 4"/><circle cx="68.0" cy="382.0" r="5.5" fill="#61dafb" fill-opacity="0.7"/><text x="82.0" y="388.0" font-size="17" font-weight="600" fill="#a1a1aa">React</text></g><rect x="608" y="256" width="564" height="150" rx="14" fill="#ffffff" fill-opacity=".025" stroke="#ffffff" stroke-opacity=".08"/><text x="628" y="290" font-size="20" font-weight="700" fill="#ffffff">Infra e ferramentas</text><text x="1156" y="289" font-size="14" text-anchor="end" fill="#9ca3af">ambiente e versionamento</text><g class="c" style="animation-delay:0.77s"><rect x="628.0" y="315.0" width="110.0" height="38" rx="19" fill="#1c1917" stroke="#2496ed" stroke-opacity=".6"/><circle cx="648.0" cy="334.0" r="5.5" fill="#2496ed" fill-opacity="1"/><text x="662.0" y="340.0" font-size="17" font-weight="600" fill="#f3f4f6">Docker</text></g><g class="c" style="animation-delay:0.82s"><rect x="750.0" y="315.0" width="170.0" height="38" rx="19" fill="#1c1917" stroke="#f05032" stroke-opacity=".6"/><circle cx="770.0" cy="334.0" r="5.5" fill="#f05032" fill-opacity="1"/><text x="784.0" y="340.0" font-size="17" font-weight="600" fill="#f3f4f6">Git &amp; GitHub</text></g><g class="c" style="animation-delay:0.86s"><rect x="932.0" y="315.0" width="80.0" height="38" rx="19" fill="none" stroke="#ff9900" stroke-opacity=".65" stroke-dasharray="4 4"/><circle cx="952.0" cy="334.0" r="5.5" fill="#ff9900" fill-opacity="0.7"/><text x="966.0" y="340.0" font-size="17" font-weight="600" fill="#a1a1aa">AWS</text></g>
</svg>
